<?xml version="1.0" encoding="UTF-8"?>
<svg id="Layer_1" data-name="Layer 1" xmlns="http://www.w3.org/2000/svg" viewBox="0 0 335.45 342.91">
  <defs>
    <style>
      .cls-1 {
        fill: #d2562d;
      }
    </style>
  </defs>
  <polygon class="cls-1" points="237.07 293.16 237.07 303.24 172.87 287.59 50.73 257.82 0 342.91 12.31 191.88 37.21 192.28 172.87 53.53 185.56 40.55 172.87 76.83 119.34 229.88 172.87 258.65 197.75 272.03 237.07 293.16"/>
  <polygon class="cls-1" points="93.27 129.21 35.55 188.25 32.67 188.2 17.75 0 93.27 129.21"/>
  <polygon class="cls-1" points="185.56 40.55 172.87 76.83 172.87 53.53 185.56 40.55"/>
  <polygon class="cls-1" points="197.75 272.03 237.07 293.16 237.07 303.24 172.87 287.59 172.87 258.65 197.75 272.03"/>
  <polygon class="cls-1" points="237.07 11.05 237.07 288.63 206.19 272.03 172.87 254.12 172.87 88.95 195.27 24.9 172.87 47.81 172.87 11.05 237.07 11.05"/>
  <polygon class="cls-1" points="172.87 291.72 237.07 307.37 237.07 336.23 172.87 336.23 172.87 291.72"/>
  <polygon class="cls-1" points="271.37 311.6 237.07 303.24 237.07 293.16 271.37 311.6"/>
  <polygon class="cls-1" points="237.07 303.24 172.87 287.59 172.87 272.03 197.75 272.03 237.07 293.16 237.07 303.24"/>
  <polygon class="cls-1" points="335.45 272.03 335.45 336.23 172.87 336.23 172.87 291.72 237.07 307.37 300.84 322.91 237.07 288.63 206.19 272.03 335.45 272.03"/>
</svg>