<?xml version="1.0" encoding="UTF-8" standalone="no"?>
<svg
   id="Layer_1"
   data-name="Layer 1"
   viewBox="0 0 876.82 281.08"
   version="1.1"
   sodipodi:docname="Klabs-Wordmark.svg"
   inkscape:version="1.3.1 (9b9bdc1480, 2023-11-25, custom)"
   xmlns:inkscape="http://www.inkscape.org/namespaces/inkscape"
   xmlns:sodipodi="http://sodipodi.sourceforge.net/DTD/sodipodi-0.dtd"
   xmlns="http://www.w3.org/2000/svg"
   xmlns:svg="http://www.w3.org/2000/svg">
  <sodipodi:namedview
     id="namedview12"
     pagecolor="#ffffff"
     bordercolor="#000000"
     borderopacity="0.25"
     inkscape:showpageshadow="2"
     inkscape:pageopacity="0.0"
     inkscape:pagecheckerboard="0"
     inkscape:deskcolor="#d1d1d1"
     showgrid="false"
     inkscape:zoom="1.9023289"
     inkscape:cx="438.41"
     inkscape:cy="140.61712"
     inkscape:window-width="2510"
     inkscape:window-height="1371"
     inkscape:window-x="50"
     inkscape:window-y="32"
     inkscape:window-maximized="1"
     inkscape:current-layer="Layer_1" />
  <defs
     id="defs1">
    <style
       id="style1">
      .cls-1 {
        fill: #d2562d;
      }
    </style>
  </defs>
  <path
     class="cls-1"
     d="m 548.89667,279.24 c -7.16,0 -17.34,0 -23.5,-0.05 l -27.83,-76.49 -11.73,-32.25 h 23.45 l 39.6,108.79 z"
     id="path1" />
  <path
     class="cls-1"
     d="m 509.28667,170.45 -11.73,32.25 -28.12,76.51 c -6.36,-0.2 -15.11,-0.5 -23.21,-0.7 l 39.6,-108.07 h 23.45 z"
     id="path2" />
  <polygon
     class="cls-1"
     points="36.87 1.72 36.87 35.97 36.18 34.43 15 35.89 15 1.72 36.87 1.72"
     id="polygon2" />
  <polygon
     class="cls-1"
     points="36.87 77.52 36.87 109.45 15 109.45 15 50.16 16.65 52.25 36.87 77.52"
     id="polygon3" />
  <polygon
     class="cls-1"
     points="96.58 109.45 67.54 109.45 19.77 49.75 16.48 45.6 0 40.93 33.68 38.61 36.28 44.34 65.39 1.72 91.56 1.72 52.3 57.64 96.58 109.45"
     id="polygon4" />
  <path
     class="cls-1"
     d="M197.66,1.67h-22.05v107.74h22.05V1.67Z"
     id="path4" />
  <path
     class="cls-1"
     d="M276.69,1.67v107.74h21.22V41.9l58.2,67.52h16.83V1.67h-21.08v69.66L292.71,1.67h-16.02Z"
     id="path5" />
  <path
     class="cls-1"
     d="M543.59,13.83C528.85.23,511.08,0,506.22,0s-23.36.34-38.3,14.87c-15.86,15.43-15.93,35.48-15.94,40.82-.02,5.68.16,20.88,10.95,34.87,15.69,20.35,40.43,20.8,43.3,20.81,4.43,0,24.44-.5,39.71-16.65,14.21-15.02,14.52-33.2,14.54-39.04,0-4.95.05-26.23-16.9-41.85h.02ZM506.06,90.58c-17.71,0-32.07-15.71-32.07-35.09s14.35-35.09,32.07-35.09,32.07,15.71,32.07,35.09-14.35,35.09-32.07,35.09Z"
     id="path6" />
  <path
     class="cls-1"
     d="M714.76,18.87c-8.62-10.34-20.86-17.32-35.2-17.32-16.24,0-35.38.12-40.07.12v107.6c4.67,0,23.83.12,40.07.12,27.44,0,47.61-26,48.58-51.84.52-13.82-4.5-28.04-13.38-38.69ZM698.51,78c-4.98,6.12-11.52,10.52-19.39,11.88-5.68.98-11.82.42-17.58.42V20.65c11.54,0,22.05-.81,31.54,6.84,5.73,4.62,9.87,11.1,11.8,18.18.56,2.03.94,4.12,1.11,6.23.81,9.59-1.37,18.6-7.48,26.11Z"
     id="path7" />
  <path
     class="cls-1"
     d="M807.21,1.55v107.85h69.61v-18.94h-47.91v-27.34h39.18v-19.28h-39.24v-23.03h47.97V1.55h-69.61Z"
     id="path8" />
  <path
     class="cls-1"
     d="m 328.98667,171.47 h -21.84 v 107.74 h 21.84 z"
     id="path9" />
  <path
     class="cls-1"
     d="m 360.50667,279.22 v -21.84 h -53.36 v 21.84 h 53.35 z"
     id="path10" />
  <path
     class="cls-1"
     d="m 791.15667,244.94 20.7,-2.01 c 1.25,6.95 3.77,12.05 7.58,15.31 3.81,3.26 8.95,4.89 15.41,4.89 6.85,0 12.01,-1.45 15.49,-4.35 3.47,-2.9 5.21,-6.29 5.21,-10.17 0,-2.49 -0.73,-4.61 -2.19,-6.36 -1.46,-1.75 -4.01,-3.27 -7.65,-4.56 -2.49,-0.86 -8.17,-2.39 -17.03,-4.6 -11.4,-2.83 -19.4,-6.3 -24,-10.42 -6.47,-5.8 -9.7,-12.86 -9.7,-21.2 0,-5.36 1.52,-10.38 4.56,-15.05 3.04,-4.67 7.42,-8.23 13.15,-10.67 5.72,-2.44 12.63,-3.67 20.73,-3.67 13.22,0 23.17,2.9 29.86,8.7 6.68,5.8 10.19,13.53 10.53,23.21 l -21.27,0.93 c -0.91,-5.41 -2.86,-9.31 -5.86,-11.68 -2.99,-2.37 -7.49,-3.56 -13.47,-3.56 -5.98,0 -11.02,1.27 -14.52,3.81 -2.25,1.63 -3.38,3.81 -3.38,6.54 0,2.49 1.05,4.62 3.16,6.4 2.68,2.25 9.2,4.6 19.55,7.04 10.35,2.44 18,4.97 22.96,7.58 4.96,2.61 8.84,6.18 11.64,10.71 2.8,4.53 4.2,10.12 4.2,16.78 0,6.04 -1.68,11.69 -5.03,16.96 -3.35,5.27 -8.1,9.19 -14.23,11.75 -6.13,2.56 -13.77,3.84 -22.92,3.84 -13.32,0 -23.55,-3.08 -30.68,-9.23 -7.14,-6.16 -11.4,-15.13 -12.79,-26.91 z"
     id="path11" />
  <path
     class="cls-1"
     d="m 629.06667,173.87 h 42.11 c 8.34,0 14.55,0.35 18.65,1.04 4.1,0.69 7.76,2.14 10.99,4.35 3.23,2.2 5.93,5.14 8.08,8.8 2.16,3.66 3.23,7.77 3.23,12.32 0,4.93 -1.33,9.46 -3.99,13.58 -2.66,4.12 -6.26,7.21 -10.81,9.27 6.42,1.87 11.35,5.05 14.8,9.56 3.45,4.5 5.17,9.8 5.17,15.88 0,4.79 -1.11,9.45 -3.34,13.98 -2.23,4.53 -5.27,8.14 -9.13,10.85 -3.86,2.71 -8.61,4.37 -14.26,4.99 -3.55,0.38 -12.1,0.62 -25.65,0.72 h -35.86 V 173.86 Z m 21.27,17.53 v 24.36 h 13.94 c 8.29,0 13.44,-0.12 15.45,-0.36 3.64,-0.43 6.5,-1.69 8.59,-3.77 2.09,-2.08 3.13,-4.83 3.13,-8.23 0,-3.4 -0.9,-5.9 -2.69,-7.94 -1.8,-2.04 -4.47,-3.27 -8.01,-3.7 -2.11,-0.24 -8.17,-0.36 -18.18,-0.36 h -12.22 z m 0,41.9 v 28.17 h 19.69 c 7.66,0 12.53,-0.22 14.59,-0.65 3.16,-0.58 5.74,-1.98 7.72,-4.2 1.99,-2.23 2.98,-5.21 2.98,-8.95 0,-3.16 -0.77,-5.84 -2.3,-8.05 -1.53,-2.2 -3.75,-3.81 -6.65,-4.81 -2.9,-1.01 -9.19,-1.51 -18.86,-1.51 z"
     id="path12" />
</svg>
