<?xml version="1.0" encoding="UTF-8" standalone="no"?>
<svg
   id="Layer_1"
   data-name="Layer 1"
   viewBox="0 0 903.19372 198.49474"
   version="1.1"
   sodipodi:docname="White Wordmark.svg"
   width="903.19373"
   height="198.49474"
   inkscape:version="1.2.2 (b0a8486, 2022-12-01)"
   xmlns:inkscape="http://www.inkscape.org/namespaces/inkscape"
   xmlns:sodipodi="http://sodipodi.sourceforge.net/DTD/sodipodi-0.dtd"
   xmlns="http://www.w3.org/2000/svg"
   xmlns:svg="http://www.w3.org/2000/svg">
  <sodipodi:namedview
     id="namedview51"
     pagecolor="#ffffff"
     bordercolor="#000000"
     borderopacity="0.25"
     inkscape:showpageshadow="2"
     inkscape:pageopacity="0.0"
     inkscape:pagecheckerboard="0"
     inkscape:deskcolor="#d1d1d1"
     showgrid="false"
     inkscape:zoom="1.1983954"
     inkscape:cx="431.4102"
     inkscape:cy="100.13389"
     inkscape:window-width="1309"
     inkscape:window-height="456"
     inkscape:window-x="0"
     inkscape:window-y="25"
     inkscape:window-maximized="0"
     inkscape:current-layer="Layer_1" />
  <defs
     id="defs4">
    <style
       id="style2">
      .cls-1 {
        letter-spacing: 0em;
      }

      .cls-2 {
        letter-spacing: 0em;
      }

      .cls-3 {
        letter-spacing: 0em;
      }

      .cls-4 {
        letter-spacing: -.03em;
      }

      .cls-5 {
        letter-spacing: -.05em;
      }

      .cls-6 {
        stroke-width: 0px;
      }

      .cls-6, .cls-7 {
        fill: #fffcf5;
      }

      .cls-7 {
        font-family: Times-Roman, Times;
        font-size: 133.58px;
      }

      .cls-8 {
        letter-spacing: -.04em;
      }

      .cls-9 {
        letter-spacing: -.04em;
      }

      .cls-10 {
        letter-spacing: -.02em;
      }

      .cls-11 {
        letter-spacing: -.01em;
      }

      .cls-12 {
        letter-spacing: -.06em;
      }

      .cls-13 {
        letter-spacing: -.02em;
      }

      .cls-14 {
        letter-spacing: 0em;
      }

      .cls-15 {
        letter-spacing: 0em;
      }
    </style>
  </defs>
  <text
     class="cls-7"
     id="text40"
     x="-1.8262891"
     y="89.94474"><tspan
       class="cls-14"
       x="-1.8262891"
       y="89.94474"
       id="tspan6">U</tspan><tspan
       class="cls-9"
       x="95.213715"
       y="89.94474"
       id="tspan8">N</tspan><tspan
       class="cls-10"
       x="186.80371"
       y="89.94474"
       id="tspan10">C</tspan><tspan
       class="cls-11"
       x="273.77371"
       y="89.94474"
       id="tspan12">E</tspan><tspan
       class="cls-15"
       x="353.47369"
       y="89.94474"
       id="tspan14">N</tspan><tspan
       class="cls-2"
       x="450.22369"
       y="89.94474"
       id="tspan16">T</tspan><tspan
       class="cls-11"
       x="531.82373"
       y="89.94474"
       id="tspan18">E</tspan><tspan
       class="cls-3"
       x="611.52368"
       y="89.94474"
       id="tspan20">R</tspan><tspan
       class="cls-13"
       x="701.50372"
       y="89.94474"
       id="tspan22">E</tspan><tspan
       x="780.82373"
       y="89.94474"
       id="tspan24">D</tspan><tspan
       class="cls-5"
       x="301.0737"
       y="195.76474"
       id="tspan26">S</tspan><tspan
       class="cls-12"
       x="368.81372"
       y="195.76474"
       id="tspan28">Y</tspan><tspan
       class="cls-8"
       x="457.47369"
       y="195.76474"
       id="tspan30">S</tspan><tspan
       class="cls-1"
       x="526.90369"
       y="195.76474"
       id="tspan32">T</tspan><tspan
       class="cls-11"
       x="608.51373"
       y="195.76474"
       id="tspan34">E</tspan><tspan
       class="cls-4"
       x="688.21368"
       y="195.76474"
       id="tspan36">M</tspan><tspan
       x="803.00372"
       y="195.76474"
       id="tspan38">S</tspan></text>
  <path
     class="cls-6"
     d="m 899.31371,194.84474 c -2.52,2.44 -5.54,3.65 -9.07,3.65 -3.53,0 -6.71,-1.25 -9.21,-3.74 -2.49,-2.49 -3.74,-5.56 -3.74,-9.21 0,-3.65 1.35,-6.93 4.04,-9.43 2.53,-2.34 5.5,-3.51 8.91,-3.51 3.41,0 6.62,1.27 9.15,3.8 2.53,2.53 3.8,5.58 3.8,9.15 0,3.57 -1.29,6.78 -3.88,9.29 z m -16.67,-16.8 c -2.06,2.11 -3.09,4.61 -3.09,7.5 0,2.89 1.05,5.55 3.14,7.64 2.08,2.1 4.6,3.14 7.55,3.14 2.95,0 5.45,-1.05 7.54,-3.16 2.08,-2.12 3.13,-4.66 3.13,-7.63 0,-2.97 -1.04,-5.38 -3.11,-7.5 -2.1,-2.16 -4.61,-3.23 -7.55,-3.23 -2.94,0 -5.51,1.08 -7.61,3.23 z"
     id="path42" />
  <g
     id="g48"
     transform="translate(0.00371091,1.5647376)">
    <path
       class="cls-6"
       d="m 883.99,181.98 h -2.18 v -1.94 h 6.85 v 1.94 h -2.18 v 5.49 h -2.5 v -5.49 z"
       id="path44" />
    <path
       class="cls-6"
       d="m 895.96,187.46 -0.02,-3.39 -1.61,2.72 h -1.1 l -1.61,-2.6 v 3.27 h -2.28 v -7.43 h 2.06 l 2.42,3.96 2.36,-3.96 h 2.06 l 0.02,7.43 h -2.28 z"
       id="path46" />
  </g>
</svg>
